<svg width="24" height="24" viewBox="0 0 24 24" fill="none" xmlns="http://www.w3.org/2000/svg">
<path d="M15.7927 19.0007C15.593 19.0012 15.3958 18.9682 15.2154 18.9042C15.0351 18.8402 14.8761 18.7467 14.7504 18.6307L8.29617 12.6307C8.09963 12.4518 7.99219 12.2273 7.99219 11.9957C7.99219 11.7641 8.09963 11.5396 8.29617 11.3607L14.9775 5.3607C15.2044 5.15649 15.5303 5.02806 15.8836 5.00368C16.237 4.9793 16.5888 5.06096 16.8617 5.2307C17.1346 5.40044 17.3062 5.64435 17.3388 5.90878C17.3714 6.17321 17.2622 6.43649 17.0354 6.6407L11.0623 12.0007L16.835 17.3607C16.9984 17.5075 17.1022 17.6862 17.1341 17.8758C17.166 18.0653 17.1247 18.2577 17.015 18.4303C16.9054 18.6028 16.732 18.7482 16.5154 18.8493C16.2987 18.9504 16.0479 19.0029 15.7927 19.0007Z" fill="black"/>
</svg>
